# xmcd
#
# Track frame offsets:
#	150
#	11683
#	25301
#	36763
#	49509
#	67227
#	84882
#	97566
#	108659
#	117660
#	129099
#	141450
#	152320
#
# Disc length: 2223 seconds
#
# Revision: 0
# Processed by: cddbd v1.5.2PL0 Copyright (c) Steve Scherf et al.
# Submitted via: EasyCDDAExtractor 12.0.4.1
#
DISCID=a008ad0d
DTITLE=Terry White Band - Feel Right
DYEAR=2012
DGENRE=Country
TTITLE0=Feel Right
TTITLE1=Heartaches
TTITLE2=Kiss An Angel Goodmorning
TTITLE3=You Don't Talk (And I Don't Listen)
TTITLE4=Masquerade Of A Fool
TTITLE5=That's All Right Mama
TTITLE6=Memphis Tennessee
TTITLE7=The Second Time Around
TTITLE8=Long Tall Sally
TTITLE9=Lover Please
TTITLE10=Don't Stop In My World
TTITLE11=Rock Around The Clock
TTITLE12=Right Or Wrong
EXTD=
EXTT0=
EXTT1=
EXTT2=
EXTT3=
EXTT4=
EXTT5=
EXTT6=
EXTT7=
EXTT8=
EXTT9=
EXTT10=
EXTT11=
EXTT12=
PLAYORDER=
